<svg width="610" height="1026" viewBox="0 0 610 1026" fill="none" xmlns="http://www.w3.org/2000/svg">
<mask id="mask0_25_43" style="mask-type:luminance" maskUnits="userSpaceOnUse" x="0" y="0" width="610" height="1026">
<path d="M0.703125 0.333374H609.703V1025.67H0.703125V0.333374Z" fill="white"/>
</mask>
<g mask="url(#mask0_25_43)">
<path fill-rule="evenodd" clip-rule="evenodd" d="M168.719 1025.66H162.76C162.76 669.505 105.078 643.625 -219.01 643.625V637.667C105.078 637.667 162.76 611.786 162.76 255.698H168.719C168.719 611.786 226.401 637.667 550.427 637.667V643.625C226.401 643.625 168.719 669.505 168.719 1025.66ZM523.844 540.896H522.536C522.536 461.161 509.573 455.328 437.031 455.328V454.021C509.573 454.021 522.536 448.188 522.536 368.453H523.844C523.844 448.188 536.745 454.021 609.286 454.021V455.328C536.745 455.328 523.844 461.161 523.844 540.896ZM358.526 342.771H355.906C355.906 184.479 330.24 173.016 186.266 173.016V170.328C330.24 170.328 355.906 158.865 355.906 0.640625H358.526C358.526 158.865 384.193 170.328 528.167 170.328V173.016C384.193 173.016 358.526 184.479 358.526 342.771Z" fill="white"/>
</g>
</svg>
