<svg xmlns="http://www.w3.org/2000/svg" xmlns:xlink="http://www.w3.org/1999/xlink" width="1080" zoomAndPan="magnify" viewBox="0 0 810 242.999999" height="324" preserveAspectRatio="xMidYMid meet" version="1.0"><path fill="#ffffff" d="M 406.085938 -79.457031 L 403.605469 -79.457031 C 403.605469 -62.277344 403.289062 -46.988281 402.5 -33.355469 C 313.492188 -33.121094 232.949219 -20.511719 174.515625 -0.179688 C 115.882812 20.152344 79.359375 48.324219 78.410156 79.53125 L 0.078125 79.53125 L 0.078125 82.015625 L 78.410156 82.015625 C 79.359375 113.261719 115.882812 141.433594 174.515625 161.765625 C 232.949219 182.097656 313.492188 194.707031 402.5 194.945312 C 403.289062 208.578125 403.605469 223.867188 403.605469 241.007812 L 406.085938 241.007812 C 406.085938 223.867188 406.402344 208.578125 407.191406 194.945312 C 496.164062 194.707031 576.742188 182.097656 635.175781 161.765625 C 693.769531 141.433594 730.296875 113.261719 731.242188 82.015625 L 809.613281 82.015625 L 809.613281 79.53125 L 731.242188 79.53125 C 730.296875 48.324219 693.769531 20.152344 635.175781 -0.179688 C 576.742188 -20.511719 496.164062 -33.121094 407.191406 -33.355469 C 406.402344 -46.988281 406.085938 -62.277344 406.085938 -79.457031 Z M 402.34375 -30.835938 C 402.148438 -27.839844 401.949219 -24.964844 401.714844 -22.167969 C 398.640625 10.460938 390.40625 41.546875 368.574219 60.578125 C 344.972656 77.285156 306.4375 79.53125 244.613281 79.53125 L 81.289062 79.53125 C 82.234375 49.429688 118.089844 22.082031 175.539062 2.144531 C 233.660156 -18.027344 313.765625 -30.597656 402.34375 -30.835938 Z M 81.289062 82.015625 L 244.613281 82.015625 C 306.4375 82.015625 345.011719 84.300781 368.617188 101.007812 C 390.40625 120.039062 398.640625 151.128906 401.714844 183.714844 C 401.949219 186.550781 402.148438 189.429688 402.34375 192.421875 C 313.765625 192.1875 233.660156 179.617188 175.539062 159.441406 C 118.089844 139.464844 82.234375 112.160156 81.289062 82.015625 Z M 407.347656 192.421875 C 407.507812 189.429688 407.742188 186.550781 407.9375 183.714844 C 411.050781 151.128906 419.289062 120.039062 441.078125 101.007812 C 464.679688 84.300781 503.214844 82.015625 565.078125 82.015625 L 728.402344 82.015625 C 727.417969 112.160156 691.601562 139.464844 634.113281 159.441406 C 575.992188 179.617188 495.886719 192.1875 407.347656 192.421875 Z M 728.402344 79.53125 L 565.078125 79.53125 C 503.253906 79.53125 464.71875 77.285156 441.078125 60.578125 C 419.289062 41.546875 411.050781 10.460938 407.9375 -22.167969 C 407.742188 -24.964844 407.507812 -27.839844 407.347656 -30.835938 C 495.886719 -30.597656 575.992188 -18.027344 634.113281 2.144531 C 691.601562 22.082031 727.417969 49.429688 728.402344 79.53125 " fill-opacity="1" fill-rule="evenodd"/></svg>