<svg xmlns="http://www.w3.org/2000/svg" xmlns:xlink="http://www.w3.org/1999/xlink" width="801" zoomAndPan="magnify" viewBox="0 0 600.75 519.000007" height="692" preserveAspectRatio="xMidYMid meet" version="1.0"><defs><clipPath id="28e5a4ecc4"><path d="M 0.453125 475 L 165 475 L 165 518 L 0.453125 518 Z M 0.453125 475 " clip-rule="nonzero"/></clipPath><clipPath id="e5520f1613"><path d="M 538 0 L 600.046875 0 L 600.046875 157 L 538 157 Z M 538 0 " clip-rule="nonzero"/></clipPath></defs><path fill="#302895" d="M 486.003906 127.519531 C 462.355469 143.628906 436.652344 156.914062 409.402344 166.941406 C 408.890625 195.992188 404.691406 224.613281 397.238281 252.210938 C 424.3125 242.183594 450.015625 228.984375 473.921875 212.789062 C 481.289062 185.023438 485.402344 156.3125 486.003906 127.519531 Z M 486.003906 127.519531 " fill-opacity="1" fill-rule="nonzero"/><path fill="#302895" d="M 313.355469 272.007812 C 305.816406 300.03125 294.847656 326.851562 280.882812 351.792969 C 309.585938 348.621094 337.6875 342.023438 364.765625 332.082031 C 378.730469 306.886719 389.613281 280.0625 397.152344 252.210938 C 370.417969 262.152344 342.230469 268.835938 313.355469 272.007812 Z M 313.355469 272.007812 " fill-opacity="1" fill-rule="nonzero"/><path fill="#302895" d="M 194.859375 350.675781 C 180.722656 376.042969 163.671875 399.355469 144.050781 420.265625 C 172.582031 424.121094 201.542969 424.550781 230.246094 421.464844 C 249.867188 400.382812 266.917969 376.988281 280.96875 351.792969 C 252.523438 354.960938 223.5625 354.621094 194.859375 350.675781 Z M 194.859375 350.675781 " fill-opacity="1" fill-rule="nonzero"/><path fill="#302895" d="M 364.851562 332.082031 C 350.96875 357.191406 334.003906 380.671875 314.296875 402.011719 C 341.117188 392.242188 366.992188 379.214844 391.238281 362.933594 C 411.117188 341.421875 427.910156 317.855469 441.707031 292.917969 C 417.628906 309.113281 391.839844 322.226562 364.851562 332.082031 Z M 364.851562 332.082031 " fill-opacity="1" fill-rule="nonzero"/><path fill="#302895" d="M 314.296875 402.011719 C 287.050781 411.953125 258.777344 418.378906 230.246094 421.464844 C 210.710938 442.460938 188.519531 461.140625 164.269531 477.082031 C 192.632812 474.082031 220.90625 467.742188 248.410156 457.800781 C 272.828125 441.6875 294.847656 422.921875 314.296875 402.011719 Z M 314.296875 402.011719 " fill-opacity="1" fill-rule="nonzero"/><g clip-path="url(#28e5a4ecc4)"><path fill="#302895" d="M 77.992188 475.625 C 53.914062 491.308594 27.953125 504.078125 0.535156 513.589844 C 28.808594 517.617188 57.769531 518.21875 86.816406 515.21875 C 114.40625 505.535156 140.367188 492.679688 164.269531 477.082031 C 135.394531 480.082031 106.4375 479.566406 77.992188 475.625 Z M 77.992188 475.625 " fill-opacity="1" fill-rule="nonzero"/></g><g clip-path="url(#e5520f1613)"><path fill="#302895" d="M 600.214844 0 C 586.59375 25.625 569.96875 49.363281 550.777344 70.699219 C 550.261719 99.410156 546.320312 128.117188 538.953125 156.140625 C 558.058594 134.976562 574.769531 111.320312 588.5625 85.527344 C 596.015625 57.246094 599.871094 28.539062 600.214844 0 Z M 600.214844 0 " fill-opacity="1" fill-rule="nonzero"/></g><path fill="#302895" d="M 473.835938 212.875 C 466.382812 240.640625 455.671875 267.550781 441.621094 292.917969 C 465.269531 276.976562 487.203125 258.039062 506.824219 236.355469 C 520.875 210.730469 531.5 183.738281 538.867188 156.140625 C 519.503906 177.738281 497.65625 196.761719 473.835938 212.875 Z M 473.835938 212.875 " fill-opacity="1" fill-rule="nonzero"/><path fill="#302895" d="M 227.160156 270.636719 C 256.207031 274.664062 285.167969 275.003906 313.441406 272.007812 C 320.808594 244.582031 324.921875 215.875 325.4375 186.566406 C 312.242188 187.9375 298.875 188.621094 285.339844 188.535156 C 270.945312 188.449219 256.804688 187.421875 242.839844 185.621094 C 240.097656 200.707031 237.527344 215.960938 235.300781 231.386719 C 233.242188 244.753906 230.503906 257.867188 227.160156 270.636719 Z M 227.160156 270.636719 " fill-opacity="1" fill-rule="nonzero"/></svg>