<svg xmlns="http://www.w3.org/2000/svg" xmlns:xlink="http://www.w3.org/1999/xlink" width="976" zoomAndPan="magnify" viewBox="0 0 732 519.000007" height="692" preserveAspectRatio="xMidYMid meet" version="1.0"><path fill="#302895" d="M 729.5 227.398438 C 727.953125 210.003906 718.414062 193.773438 701.136719 179.171875 C 684.648438 165.226562 661.5625 153.128906 632.527344 143.21875 C 574.296875 123.335938 495.671875 113.6875 411.09375 116.042969 C 342.996094 65.757812 272.96875 28.734375 213.820312 11.769531 C 184.304688 3.300781 158.449219 0.03125 136.953125 2.054688 C 114.4375 4.167969 97.335938 12.027344 86.128906 25.421875 C 73.105469 40.992188 68.851562 62.902344 73.484375 90.554688 C 77.824219 116.507812 89.746094 146.234375 108.914062 179 C 74.472656 194.933594 47.675781 212.539062 29.324219 231.335938 C 9.734375 251.386719 0.707031 271.800781 2.5 292.019531 C 4.046875 309.417969 13.589844 325.640625 30.867188 340.238281 C 47.359375 354.183594 70.441406 366.28125 99.476562 376.191406 C 151.960938 394.121094 220.992188 403.730469 296.050781 403.730469 C 304.273438 403.730469 312.570312 403.613281 320.933594 403.382812 C 389.03125 453.667969 459.058594 490.691406 518.207031 507.652344 C 542.058594 514.492188 563.535156 517.941406 582.25 517.941406 C 586.671875 517.941406 590.941406 517.75 595.054688 517.363281 C 617.574219 515.25 634.671875 507.382812 645.878906 493.992188 C 658.898438 478.425781 663.152344 456.515625 658.519531 428.863281 C 654.179688 402.910156 642.257812 373.179688 623.089844 340.414062 C 657.53125 324.484375 684.304688 306.875 702.679688 288.082031 C 722.273438 268.027344 731.296875 247.613281 729.5 227.398438 Z M 700.027344 285.484375 C 681.640625 304.300781 654.628906 321.933594 619.679688 337.898438 L 617.828125 338.757812 L 618.875 340.53125 C 638.417969 373.601562 650.53125 403.527344 654.878906 429.472656 C 659.320312 456.007812 655.339844 476.914062 643.046875 491.613281 C 632.488281 504.234375 616.234375 511.65625 594.71875 513.671875 C 573.679688 515.648438 548.289062 512.421875 519.242188 504.089844 C 460.363281 487.203125 390.542969 450.238281 322.640625 400.011719 L 322.125 399.632812 L 321.484375 399.632812 C 237.054688 402.0625 158.644531 392.488281 100.671875 372.679688 C 72.078125 362.949219 49.394531 351.0625 33.257812 337.417969 C 16.753906 323.464844 7.648438 308.082031 6.195312 291.691406 C 4.496094 272.578125 13.167969 253.167969 31.972656 233.929688 C 50.359375 215.113281 77.371094 197.480469 112.320312 181.515625 L 114.171875 180.660156 L 113.125 178.882812 C 93.597656 145.816406 81.496094 115.890625 77.140625 89.941406 C 72.699219 63.40625 76.675781 42.5 88.972656 27.800781 C 99.527344 15.183594 115.773438 7.761719 137.296875 5.742188 C 158.339844 3.789062 183.730469 6.992188 212.78125 15.324219 C 271.660156 32.214844 341.480469 69.175781 409.382812 119.402344 L 409.898438 119.78125 L 410.535156 119.78125 C 494.941406 117.371094 573.359375 126.945312 631.332031 146.738281 C 659.925781 156.503906 682.613281 168.371094 698.75 182.015625 C 715.25 195.964844 724.355469 211.351562 725.8125 227.742188 C 727.507812 246.8125 718.828125 266.25 700.027344 285.484375 Z M 700.027344 285.484375 " fill-opacity="1" fill-rule="nonzero"/><path fill="#302895" d="M 157.300781 163.53125 L 159.617188 162.722656 C 216.765625 143.019531 283.933594 129.316406 353.886719 123.101562 C 366.765625 121.957031 379.828125 121.0625 392.660156 120.449219 L 398.757812 120.15625 L 393.527344 117.011719 C 371.53125 103.777344 349.285156 93.089844 327.421875 85.246094 C 305.820312 77.503906 285.089844 72.734375 265.808594 71.019531 C 246.230469 69.296875 228.609375 70.796875 213.4375 75.488281 C 197.636719 80.371094 184.789062 88.625 175.257812 100.023438 C 162.09375 115.777344 156.023438 136.292969 157.191406 161.070312 Z M 178.074219 102.394531 C 196.109375 80.835938 226.324219 71.261719 265.457031 74.710938 C 302.105469 77.953125 344.816406 92.929688 386.3125 117.0625 C 375.414062 117.65625 364.414062 118.453125 353.539062 119.410156 C 284.253906 125.566406 217.691406 139.042969 160.792969 158.410156 C 160.160156 135.707031 165.96875 116.867188 178.078125 102.394531 Z M 178.074219 102.394531 " fill-opacity="1" fill-rule="nonzero"/><path fill="#302895" d="M 574.699219 355.886719 L 572.382812 356.691406 C 515.25 376.386719 448.089844 390.101562 378.136719 396.316406 C 365.257812 397.460938 352.195312 398.355469 339.363281 398.964844 L 333.265625 399.257812 L 338.496094 402.402344 C 360.492188 415.640625 382.738281 426.328125 404.601562 434.167969 C 426.203125 441.910156 446.933594 446.679688 466.214844 448.394531 C 471.464844 448.859375 476.5625 449.089844 481.503906 449.085938 C 495.046875 449.085938 507.472656 447.363281 518.5625 443.925781 C 534.363281 439.042969 547.210938 430.789062 556.742188 419.394531 C 569.90625 403.636719 575.976562 383.121094 574.808594 358.347656 Z M 553.925781 417.019531 C 538.292969 435.710938 513.503906 445.390625 481.6875 445.390625 C 476.804688 445.390625 471.757812 445.164062 466.542969 444.707031 C 429.894531 441.460938 387.183594 426.484375 345.6875 402.351562 C 356.585938 401.761719 367.585938 400.964844 378.460938 400.003906 C 447.75 393.84375 514.328125 380.367188 571.210938 361 C 571.84375 383.710938 566.054688 402.546875 553.925781 417.019531 Z M 553.925781 417.019531 " fill-opacity="1" fill-rule="nonzero"/><path fill="#302895" d="M 278.019531 364.890625 C 224.175781 319.804688 176.867188 270.167969 141.253906 221.351562 L 139.792969 219.355469 L 138.289062 221.316406 C 123.167969 240.96875 116.421875 261.296875 118.234375 281.730469 C 119.550781 296.53125 125.378906 310.644531 135.554688 323.6875 C 145.332031 336.199219 158.933594 347.511719 175.988281 357.285156 C 192.785156 366.914062 212.535156 374.835938 234.683594 380.828125 C 257.109375 386.894531 281.46875 390.835938 307.078125 392.542969 L 313.171875 392.949219 L 308.335938 389.242188 C 298.128906 381.375 287.933594 373.183594 278.019531 364.890625 Z M 177.828125 354.074219 C 143.742188 334.535156 124.410156 309.402344 121.921875 281.382812 C 120.253906 262.582031 126.246094 243.804688 139.730469 225.53125 C 175.347656 273.96875 222.296875 323.09375 275.644531 367.730469 C 284.019531 374.742188 292.59375 381.675781 301.199219 388.390625 C 253.359375 384.480469 209.746094 372.371094 177.828125 354.074219 Z M 177.828125 354.074219 " fill-opacity="1" fill-rule="nonzero"/><path fill="#302895" d="M 377.71875 391.679688 C 416.3125 388.25 452.867188 380.386719 486.378906 368.300781 C 518.382812 356.761719 546.574219 341.503906 567.914062 324.183594 L 568.867188 323.410156 L 568.527344 322.230469 C 560.914062 295.816406 546.492188 267.191406 526.835938 239.425781 C 506.207031 210.335938 480.695312 182.984375 450.984375 158.113281 C 437.382812 146.714844 423.175781 136.132812 408.363281 126.363281 L 407.902344 126.070312 L 407.371094 126.070312 C 389.636719 125.621094 371.933594 126.1875 354.261719 127.765625 C 315.667969 131.195312 279.113281 139.0625 245.601562 151.148438 C 213.601562 162.6875 185.40625 177.941406 164.070312 195.265625 L 163.113281 196.039062 L 163.453125 197.214844 C 171.070312 223.632812 185.488281 252.257812 205.144531 280.023438 C 225.746094 309.09375 251.257812 336.445312 280.976562 361.316406 C 294.574219 372.714844 308.78125 383.296875 323.59375 393.066406 L 324.058594 393.359375 L 324.585938 393.359375 C 328.464844 393.460938 332.363281 393.511719 336.277344 393.511719 C 349.984375 393.511719 363.867188 392.890625 377.71875 391.679688 Z M 283.398438 358.460938 C 225.566406 310.027344 183.328125 251.378906 167.386719 197.355469 C 211.320312 162.136719 279.464844 138.125 354.609375 131.445312 C 371.960938 129.894531 389.347656 129.328125 406.765625 129.746094 C 421.300781 139.359375 435.246094 149.761719 448.601562 160.953125 C 506.457031 209.386719 548.664062 268.03125 564.613281 322.054688 C 520.683594 357.285156 452.558594 381.289062 377.394531 387.972656 C 360.042969 389.523438 342.65625 390.089844 325.238281 389.667969 C 310.703125 380.058594 296.753906 369.65625 283.398438 358.460938 Z M 283.398438 358.460938 " fill-opacity="1" fill-rule="nonzero"/><path fill="#302895" d="M 596.449219 195.730469 C 586.675781 183.214844 573.074219 171.902344 556.015625 162.128906 C 539.21875 152.5 519.46875 144.582031 497.320312 138.589844 C 474.894531 132.523438 450.535156 128.578125 424.925781 126.871094 L 418.832031 126.464844 L 423.671875 130.171875 C 433.863281 138.027344 444.054688 146.214844 453.976562 154.511719 C 507.832031 199.597656 555.132812 249.230469 590.75 298.050781 L 592.210938 300.046875 L 593.714844 298.085938 C 608.835938 278.433594 615.582031 258.105469 613.765625 237.667969 C 612.457031 222.886719 606.628906 208.769531 596.449219 195.730469 Z M 592.277344 293.863281 C 556.660156 245.460938 509.714844 196.339844 456.367188 151.683594 C 447.984375 144.671875 439.410156 137.722656 430.785156 131.023438 C 478.621094 134.941406 522.242188 147.050781 554.160156 165.347656 C 588.261719 184.886719 607.59375 210.015625 610.0625 238.011719 C 611.75 256.824219 605.761719 275.597656 592.273438 293.863281 Z M 592.277344 293.863281 " fill-opacity="1" fill-rule="nonzero"/></svg>