<svg width="150" height="150" viewBox="0 0 150 150" fill="none" xmlns="http://www.w3.org/2000/svg">
<g clip-path="url(#clip0_43_38)">
<rect width="150" height="150" fill="url(#paint0_linear_43_38)"/>
<mask id="mask0_43_38" style="mask-type:luminance" maskUnits="userSpaceOnUse" x="58" y="74" width="123" height="126">
<path d="M58 74H181V200H58V74Z" fill="white"/>
</mask>
<g mask="url(#mask0_43_38)">
<path d="M149.596 114.333H181.03V113.303H149.596C149.369 113.303 149.142 113.291 148.915 113.269C148.689 113.246 148.464 113.212 148.241 113.166C148.017 113.12 147.796 113.064 147.579 112.996C147.36 112.928 147.146 112.85 146.936 112.761C146.725 112.671 146.52 112.572 146.319 112.462C146.118 112.352 145.923 112.232 145.733 112.102C145.544 111.973 145.361 111.834 145.185 111.686C145.009 111.538 144.841 111.381 144.68 111.216C144.519 111.052 144.366 110.879 144.222 110.699C144.077 110.519 143.941 110.331 143.815 110.137C143.689 109.943 143.571 109.743 143.464 109.538C143.357 109.331 143.259 109.121 143.172 108.905C143.085 108.69 143.009 108.47 142.942 108.247C142.877 108.024 142.821 107.798 142.776 107.569C142.732 107.34 142.699 107.11 142.676 106.878C142.654 106.646 142.643 106.413 142.643 106.18V74H141.638V106.2C141.638 106.433 141.627 106.666 141.604 106.898C141.582 107.131 141.549 107.361 141.505 107.59C141.46 107.818 141.404 108.044 141.339 108.268C141.272 108.491 141.196 108.71 141.109 108.926C141.021 109.142 140.924 109.352 140.817 109.558C140.71 109.764 140.593 109.964 140.466 110.158C140.339 110.352 140.204 110.539 140.06 110.72C139.915 110.9 139.762 111.072 139.601 111.237C139.441 111.402 139.271 111.559 139.095 111.706C138.919 111.855 138.736 111.994 138.548 112.123C138.358 112.253 138.163 112.373 137.962 112.482C137.761 112.593 137.556 112.692 137.345 112.781C137.135 112.87 136.921 112.949 136.703 113.017C136.484 113.084 136.264 113.141 136.041 113.187C135.817 113.232 135.593 113.266 135.366 113.29C135.139 113.312 134.912 113.323 134.684 113.323H120.304V74H118.736V113.323H103.271V114.353H118.736V124.946C118.736 125.315 118.718 125.684 118.683 126.052C118.648 126.42 118.595 126.785 118.525 127.148C118.455 127.511 118.367 127.87 118.263 128.223C118.158 128.577 118.037 128.925 117.9 129.267C117.762 129.609 117.608 129.943 117.438 130.269C117.269 130.596 117.084 130.913 116.884 131.221C116.684 131.529 116.47 131.825 116.241 132.112C116.012 132.398 115.771 132.673 115.516 132.935C115.262 133.196 114.995 133.446 114.716 133.68C114.438 133.916 114.15 134.137 113.85 134.343C113.55 134.549 113.242 134.741 112.923 134.916C112.606 135.091 112.281 135.25 111.947 135.393C111.615 135.535 111.275 135.661 110.93 135.77C110.585 135.878 110.236 135.969 109.882 136.042C109.528 136.117 109.171 136.172 108.813 136.21C108.454 136.248 108.093 136.268 107.733 136.269H58V137.824H107.733C108.093 137.826 108.451 137.845 108.809 137.883C109.167 137.92 109.522 137.975 109.875 138.048C110.227 138.122 110.575 138.212 110.92 138.32C111.263 138.428 111.601 138.553 111.934 138.694C112.266 138.836 112.59 138.994 112.907 139.168C113.224 139.342 113.532 139.532 113.831 139.737C114.13 139.942 114.418 140.161 114.696 140.395C114.975 140.629 115.241 140.876 115.495 141.136C115.75 141.396 115.991 141.669 116.22 141.954C116.448 142.238 116.663 142.534 116.863 142.84C117.064 143.146 117.249 143.461 117.419 143.786C117.589 144.111 117.744 144.443 117.882 144.783C118.021 145.123 118.143 145.469 118.249 145.821C118.355 146.173 118.443 146.53 118.515 146.891C118.586 147.253 118.641 147.616 118.678 147.983C118.715 148.349 118.734 148.717 118.736 149.085V200.031H120.304V149.085C120.306 148.717 120.325 148.35 120.362 147.983C120.399 147.617 120.453 147.254 120.525 146.893C120.597 146.531 120.685 146.175 120.791 145.823C120.896 145.471 121.018 145.125 121.157 144.785C121.296 144.445 121.45 144.113 121.62 143.789C121.79 143.464 121.975 143.149 122.175 142.843C122.375 142.537 122.589 142.242 122.817 141.957C123.046 141.673 123.287 141.401 123.542 141.14C123.795 140.88 124.061 140.632 124.339 140.398C124.617 140.164 124.905 139.945 125.204 139.74C125.502 139.536 125.811 139.346 126.127 139.171C126.444 138.997 126.768 138.839 127.1 138.697C127.432 138.556 127.769 138.43 128.113 138.323C128.457 138.214 128.804 138.123 129.157 138.05C129.509 137.977 129.864 137.921 130.222 137.883C130.58 137.845 130.938 137.826 131.297 137.824H141.658V153.656H142.663V137.824H181.051V136.228H142.643V121.456C142.643 121.222 142.654 120.989 142.676 120.757C142.699 120.525 142.732 120.295 142.776 120.066C142.821 119.838 142.877 119.612 142.942 119.388C143.009 119.165 143.085 118.946 143.172 118.73C143.259 118.514 143.357 118.304 143.464 118.098C143.571 117.892 143.689 117.692 143.815 117.498C143.941 117.304 144.077 117.118 144.222 116.936C144.366 116.756 144.519 116.583 144.68 116.419C144.841 116.254 145.009 116.097 145.185 115.949C145.361 115.801 145.544 115.662 145.733 115.533C145.923 115.403 146.118 115.283 146.319 115.174C146.52 115.063 146.725 114.964 146.936 114.874C147.146 114.786 147.36 114.707 147.579 114.639C147.796 114.572 148.017 114.515 148.241 114.469C148.464 114.424 148.689 114.39 148.915 114.366C149.142 114.344 149.369 114.333 149.596 114.333ZM131.297 136.228C130.938 136.226 130.579 136.206 130.22 136.168C129.862 136.13 129.507 136.074 129.155 136.001C128.802 135.928 128.453 135.836 128.11 135.728C127.765 135.62 127.428 135.495 127.095 135.352C126.763 135.21 126.439 135.052 126.121 134.877C125.805 134.703 125.496 134.513 125.197 134.307C124.899 134.101 124.61 133.881 124.332 133.647C124.055 133.413 123.788 133.165 123.534 132.905C123.28 132.643 123.039 132.371 122.811 132.085C122.582 131.8 122.368 131.504 122.168 131.197C121.968 130.891 121.783 130.575 121.613 130.25C121.443 129.926 121.289 129.593 121.151 129.252C121.013 128.912 120.891 128.565 120.786 128.212C120.681 127.86 120.592 127.503 120.522 127.142C120.451 126.78 120.397 126.416 120.361 126.049C120.324 125.682 120.305 125.314 120.304 124.946V114.333H134.704C134.932 114.333 135.159 114.344 135.385 114.366C135.613 114.39 135.838 114.424 136.061 114.469C136.284 114.515 136.505 114.572 136.723 114.639C136.941 114.707 137.155 114.786 137.365 114.874C137.576 114.964 137.781 115.063 137.982 115.174C138.183 115.283 138.379 115.403 138.567 115.533C138.757 115.662 138.939 115.801 139.115 115.949C139.291 116.097 139.461 116.254 139.622 116.419C139.782 116.583 139.935 116.756 140.08 116.936C140.224 117.118 140.359 117.304 140.487 117.498C140.613 117.692 140.73 117.892 140.837 118.098C140.945 118.304 141.042 118.514 141.129 118.73C141.216 118.946 141.292 119.165 141.359 119.388C141.425 119.612 141.48 119.838 141.524 120.066C141.569 120.295 141.602 120.525 141.624 120.757C141.647 120.989 141.658 121.222 141.658 121.456V136.228H131.297Z" fill="white"/>
</g>
</g>
<defs>
<linearGradient id="paint0_linear_43_38" x1="9.49999" y1="10" x2="136" y2="150" gradientUnits="userSpaceOnUse">
<stop stop-color="#FF43CA"/>
<stop offset="1" stop-color="#010001"/>
</linearGradient>
<clipPath id="clip0_43_38">
<rect width="150" height="150" fill="white"/>
</clipPath>
</defs>
</svg>
