<svg xmlns="http://www.w3.org/2000/svg" xmlns:xlink="http://www.w3.org/1999/xlink" width="693" zoomAndPan="magnify" viewBox="0 0 519.75 570.749988" height="761" preserveAspectRatio="xMidYMid meet" version="1.0"><defs><clipPath id="9d7379c5d8"><path d="M 0 0.0117188 L 519.5 0.0117188 L 519.5 570.488281 L 0 570.488281 Z M 0 0.0117188 " clip-rule="nonzero"/></clipPath></defs><g clip-path="url(#9d7379c5d8)"><path fill="#ffffff" d="M 519.632812 358.476562 L 435.144531 358.476562 C 428.882812 304.613281 308.910156 261.597656 161.167969 260.738281 L 161.167969 0.0117188 L 152.09375 0.0117188 L 152.09375 260.738281 C 4.351562 261.597656 -115.617188 304.613281 -121.878906 358.476562 L -206.367188 358.476562 L -206.367188 367.550781 L -121.878906 367.550781 C -115.617188 421.410156 4.351562 464.425781 152.09375 465.332031 L 152.09375 726.011719 L 161.167969 726.011719 L 161.167969 465.332031 C 308.863281 464.425781 428.882812 421.410156 435.097656 367.59375 L 519.632812 367.59375 Z M 383.144531 358.476562 L 226.191406 358.476562 C 225.128906 358.476562 224.0625 358.449219 223 358.398438 C 221.9375 358.347656 220.878906 358.269531 219.820312 358.167969 C 218.761719 358.0625 217.703125 357.933594 216.652344 357.777344 C 215.597656 357.621094 214.550781 357.441406 213.507812 357.234375 C 212.464844 357.027344 211.425781 356.792969 210.394531 356.535156 C 209.363281 356.277344 208.335938 355.996094 207.320312 355.6875 C 206.300781 355.378906 205.289062 355.046875 204.289062 354.6875 C 203.285156 354.332031 202.292969 353.949219 201.3125 353.542969 C 200.328125 353.136719 199.355469 352.703125 198.394531 352.25 C 197.433594 351.796875 196.480469 351.316406 195.542969 350.816406 C 194.605469 350.316406 193.679688 349.792969 192.765625 349.246094 C 191.851562 348.699219 190.953125 348.128906 190.070312 347.539062 C 189.183594 346.949219 188.316406 346.335938 187.460938 345.703125 C 186.605469 345.070312 185.765625 344.417969 184.945312 343.742188 C 184.121094 343.066406 183.316406 342.371094 182.527344 341.660156 C 181.738281 340.945312 180.96875 340.210938 180.214844 339.460938 C 179.464844 338.707031 178.730469 337.9375 178.015625 337.148438 C 177.300781 336.363281 176.605469 335.554688 175.929688 334.734375 C 175.253906 333.910156 174.601562 333.074219 173.964844 332.21875 C 173.332031 331.363281 172.71875 330.496094 172.128906 329.609375 C 171.539062 328.726562 170.96875 327.828125 170.421875 326.917969 C 169.875 326.003906 169.347656 325.078125 168.847656 324.140625 C 168.347656 323.203125 167.867188 322.253906 167.414062 321.289062 C 166.957031 320.328125 166.527344 319.355469 166.117188 318.375 C 165.710938 317.390625 165.328125 316.398438 164.96875 315.398438 C 164.613281 314.394531 164.277344 313.386719 163.96875 312.367188 C 163.660156 311.351562 163.375 310.324219 163.117188 309.292969 C 162.859375 308.261719 162.625 307.222656 162.417969 306.179688 C 162.210938 305.136719 162.027344 304.089844 161.871094 303.035156 C 161.714844 301.984375 161.585938 300.929688 161.480469 299.871094 C 161.378906 298.8125 161.300781 297.75 161.246094 296.6875 C 161.195312 295.625 161.167969 294.5625 161.167969 293.496094 L 161.167969 264.820312 C 280.824219 265.863281 377.699219 306.972656 383.144531 358.476562 Z M 152.09375 264.820312 L 152.09375 293.496094 C 152.09375 294.5625 152.070312 295.625 152.015625 296.6875 C 151.964844 297.75 151.886719 298.808594 151.785156 299.867188 C 151.679688 300.925781 151.550781 301.980469 151.394531 303.035156 C 151.242188 304.085938 151.058594 305.132812 150.851562 306.175781 C 150.644531 307.21875 150.414062 308.257812 150.15625 309.289062 C 149.898438 310.320312 149.613281 311.347656 149.304688 312.363281 C 148.996094 313.382812 148.664062 314.390625 148.304688 315.394531 C 147.949219 316.394531 147.566406 317.386719 147.160156 318.371094 C 146.753906 319.351562 146.324219 320.324219 145.867188 321.285156 C 145.414062 322.25 144.9375 323.199219 144.433594 324.136719 C 143.933594 325.074219 143.410156 326 142.863281 326.914062 C 142.316406 327.824219 141.746094 328.722656 141.15625 329.609375 C 140.566406 330.492188 139.953125 331.363281 139.320312 332.214844 C 138.6875 333.070312 138.03125 333.910156 137.359375 334.730469 C 136.683594 335.554688 135.988281 336.359375 135.273438 337.144531 C 134.5625 337.933594 133.828125 338.703125 133.074219 339.457031 C 132.324219 340.207031 131.554688 340.941406 130.765625 341.65625 C 129.976562 342.371094 129.171875 343.066406 128.351562 343.738281 C 127.527344 344.414062 126.6875 345.066406 125.835938 345.703125 C 124.980469 346.335938 124.109375 346.949219 123.226562 347.539062 C 122.34375 348.128906 121.445312 348.699219 120.53125 349.242188 C 119.617188 349.789062 118.695312 350.316406 117.753906 350.816406 C 116.816406 351.316406 115.867188 351.792969 114.90625 352.25 C 113.945312 352.703125 112.972656 353.132812 111.988281 353.539062 C 111.007812 353.949219 110.015625 354.328125 109.011719 354.6875 C 108.011719 355.046875 107 355.378906 105.984375 355.6875 C 104.964844 355.996094 103.941406 356.277344 102.910156 356.535156 C 101.875 356.792969 100.839844 357.027344 99.796875 357.234375 C 98.753906 357.441406 97.703125 357.621094 96.652344 357.777344 C 95.601562 357.933594 94.546875 358.0625 93.488281 358.164062 C 92.429688 358.269531 91.367188 358.347656 90.304688 358.398438 C 89.242188 358.449219 88.179688 358.476562 87.117188 358.476562 L -69.882812 358.476562 C -64.4375 306.972656 32.441406 265.863281 152.09375 264.820312 Z M -69.882812 367.550781 L 87.117188 367.550781 C 88.179688 367.550781 89.242188 367.574219 90.304688 367.628906 C 91.367188 367.679688 92.429688 367.757812 93.488281 367.863281 C 94.546875 367.96875 95.601562 368.097656 96.65625 368.253906 C 97.707031 368.410156 98.753906 368.589844 99.796875 368.800781 C 100.839844 369.007812 101.878906 369.238281 102.910156 369.5 C 103.945312 369.757812 104.96875 370.042969 105.988281 370.351562 C 107.003906 370.660156 108.015625 370.992188 109.015625 371.351562 C 110.015625 371.710938 111.007812 372.09375 111.992188 372.5 C 112.976562 372.90625 113.949219 373.339844 114.910156 373.792969 C 115.871094 374.25 116.820312 374.726562 117.757812 375.230469 C 118.695312 375.730469 119.621094 376.253906 120.535156 376.800781 C 121.445312 377.347656 122.34375 377.917969 123.230469 378.511719 C 124.113281 379.101562 124.984375 379.714844 125.839844 380.347656 C 126.691406 380.980469 127.53125 381.636719 128.351562 382.3125 C 129.175781 382.988281 129.980469 383.679688 130.769531 384.394531 C 131.554688 385.109375 132.328125 385.84375 133.078125 386.597656 C 133.832031 387.351562 134.5625 388.121094 135.277344 388.910156 C 135.992188 389.699219 136.6875 390.503906 137.359375 391.324219 C 138.035156 392.148438 138.6875 392.988281 139.324219 393.839844 C 139.957031 394.695312 140.566406 395.566406 141.160156 396.449219 C 141.75 397.335938 142.316406 398.234375 142.863281 399.148438 C 143.410156 400.058594 143.933594 400.984375 144.4375 401.925781 C 144.9375 402.863281 145.414062 403.8125 145.867188 404.773438 C 146.324219 405.738281 146.753906 406.710938 147.160156 407.691406 C 147.566406 408.675781 147.949219 409.667969 148.308594 410.671875 C 148.664062 411.671875 149 412.683594 149.304688 413.699219 C 149.613281 414.71875 149.898438 415.742188 150.15625 416.777344 C 150.414062 417.808594 150.644531 418.847656 150.851562 419.890625 C 151.058594 420.933594 151.242188 421.980469 151.394531 423.035156 C 151.550781 424.085938 151.679688 425.140625 151.785156 426.199219 C 151.886719 427.257812 151.964844 428.320312 152.015625 429.382812 C 152.070312 430.445312 152.09375 431.507812 152.09375 432.570312 L 152.09375 461.203125 C 32.441406 460.207031 -64.4375 419.050781 -69.882812 367.550781 Z M 161.167969 461.203125 L 161.167969 432.570312 C 161.167969 431.507812 161.191406 430.445312 161.246094 429.382812 C 161.296875 428.316406 161.375 427.257812 161.476562 426.199219 C 161.582031 425.136719 161.710938 424.082031 161.867188 423.027344 C 162.023438 421.976562 162.203125 420.929688 162.410156 419.882812 C 162.617188 418.839844 162.851562 417.800781 163.109375 416.769531 C 163.367188 415.734375 163.648438 414.710938 163.957031 413.691406 C 164.265625 412.671875 164.601562 411.664062 164.957031 410.660156 C 165.316406 409.660156 165.699219 408.664062 166.105469 407.683594 C 166.511719 406.699219 166.945312 405.726562 167.398438 404.761719 C 167.851562 403.800781 168.332031 402.851562 168.832031 401.910156 C 169.335938 400.972656 169.859375 400.046875 170.40625 399.132812 C 170.953125 398.222656 171.523438 397.320312 172.113281 396.4375 C 172.703125 395.550781 173.316406 394.683594 173.949219 393.828125 C 174.585938 392.972656 175.238281 392.132812 175.914062 391.308594 C 176.589844 390.488281 177.285156 389.683594 178 388.894531 C 178.714844 388.105469 179.445312 387.332031 180.199219 386.582031 C 180.953125 385.828125 181.722656 385.09375 182.511719 384.378906 C 183.300781 383.664062 184.105469 382.96875 184.929688 382.296875 C 185.75 381.621094 186.589844 380.964844 187.445312 380.332031 C 188.300781 379.699219 189.171875 379.085938 190.054688 378.492188 C 190.941406 377.902344 191.839844 377.332031 192.753906 376.785156 C 193.664062 376.238281 194.589844 375.714844 195.53125 375.214844 C 196.46875 374.710938 197.417969 374.234375 198.382812 373.78125 C 199.34375 373.324219 200.316406 372.894531 201.300781 372.488281 C 202.285156 372.082031 203.277344 371.699219 204.28125 371.339844 C 205.28125 370.980469 206.292969 370.648438 207.3125 370.339844 C 208.328125 370.03125 209.355469 369.746094 210.386719 369.488281 C 211.421875 369.230469 212.457031 369 213.503906 368.792969 C 214.546875 368.585938 215.59375 368.402344 216.648438 368.246094 C 217.699219 368.09375 218.757812 367.960938 219.816406 367.859375 C 220.875 367.753906 221.9375 367.675781 223 367.625 C 224.0625 367.574219 225.125 367.550781 226.191406 367.550781 L 383.144531 367.550781 C 377.699219 419.050781 280.824219 460.207031 161.167969 461.203125 Z M 161.167969 461.203125 " fill-opacity="1" fill-rule="nonzero"/></g></svg>