<svg xmlns="http://www.w3.org/2000/svg" xmlns:xlink="http://www.w3.org/1999/xlink" width="693" zoomAndPan="magnify" viewBox="0 0 519.75 88.499997" height="118" preserveAspectRatio="xMidYMid meet" version="1.0"><defs><clipPath id="284c5ba3ff"><path d="M 1.335938 0 L 518.164062 0 L 518.164062 88 L 1.335938 88 Z M 1.335938 0 " clip-rule="nonzero"/></clipPath></defs><g clip-path="url(#284c5ba3ff)"><path fill="#ff4ec0" d="M 259.847656 0.207031 L 263.988281 18.542969 C 264.269531 19.78125 264.648438 20.988281 265.128906 22.164062 C 265.605469 23.339844 266.179688 24.46875 266.84375 25.550781 C 267.511719 26.632812 268.261719 27.652344 269.097656 28.613281 C 269.933594 29.570312 270.839844 30.453125 271.820312 31.261719 C 272.800781 32.074219 273.84375 32.796875 274.945312 33.433594 C 276.046875 34.070312 277.191406 34.613281 278.382812 35.0625 C 279.574219 35.511719 280.792969 35.863281 282.042969 36.109375 C 283.289062 36.359375 284.550781 36.503906 285.824219 36.546875 L 518.414062 44.003906 L 285.824219 51.464844 C 284.550781 51.507812 283.289062 51.652344 282.042969 51.898438 C 280.792969 52.148438 279.574219 52.496094 278.382812 52.945312 C 277.191406 53.394531 276.046875 53.9375 274.945312 54.578125 C 273.84375 55.214844 272.800781 55.9375 271.820312 56.746094 C 270.839844 57.554688 269.933594 58.441406 269.097656 59.398438 C 268.261719 60.355469 267.511719 61.375 266.84375 62.457031 C 266.179688 63.539062 265.605469 64.667969 265.128906 65.84375 C 264.648438 67.019531 264.269531 68.226562 263.988281 69.464844 L 259.847656 87.804688 L 255.71875 69.464844 C 255.4375 68.226562 255.058594 67.019531 254.578125 65.84375 C 254.097656 64.667969 253.527344 63.539062 252.859375 62.460938 C 252.195312 61.378906 251.441406 60.359375 250.609375 59.398438 C 249.773438 58.441406 248.863281 57.558594 247.882812 56.75 C 246.902344 55.941406 245.863281 55.214844 244.761719 54.578125 C 243.660156 53.941406 242.515625 53.398438 241.324219 52.949219 C 240.132812 52.5 238.914062 52.148438 237.664062 51.902344 C 236.414062 51.652344 235.15625 51.507812 233.882812 51.464844 L 1.335938 44.003906 L 233.882812 36.546875 C 235.15625 36.503906 236.414062 36.359375 237.664062 36.109375 C 238.914062 35.859375 240.132812 35.511719 241.324219 35.0625 C 242.515625 34.613281 243.660156 34.070312 244.761719 33.433594 C 245.863281 32.792969 246.902344 32.070312 247.882812 31.261719 C 248.863281 30.453125 249.773438 29.570312 250.609375 28.609375 C 251.441406 27.652344 252.195312 26.632812 252.859375 25.550781 C 253.527344 24.46875 254.097656 23.339844 254.578125 22.164062 C 255.058594 20.988281 255.4375 19.78125 255.71875 18.542969 Z M 259.847656 0.207031 " fill-opacity="1" fill-rule="nonzero"/></g></svg>