<svg xmlns="http://www.w3.org/2000/svg" xmlns:xlink="http://www.w3.org/1999/xlink" width="1000" zoomAndPan="magnify" viewBox="0 0 750 749.999995" height="1000" preserveAspectRatio="xMidYMid meet" version="1.0"><path fill="#ff4ec0" d="M 486.269531 486.195312 C 439.300781 439.226562 396.382812 402.160156 376.277344 390.605469 C 356.316406 402.011719 313.550781 438.777344 266.882812 485.445312 C 313.550781 438.777344 350.316406 396.007812 361.71875 376.050781 C 350.015625 355.941406 313.101562 313.023438 266.132812 266.054688 C 313.101562 313.023438 356.015625 349.941406 376.125 361.644531 C 396.234375 350.089844 438.851562 313.324219 485.519531 266.808594 C 439 313.476562 402.234375 356.242188 390.679688 376.199219 C 402.234375 396.160156 439.300781 439.074219 486.269531 486.195312 Z M 486.269531 486.195312 " fill-opacity="1" fill-rule="nonzero"/><path fill="#ff4ec0" d="M 749.925781 206.03125 C 636.480469 206.933594 544.792969 298.621094 543.890625 412.066406 C 542.992188 298.621094 451.15625 206.78125 337.859375 206.03125 C 451.304688 205.132812 542.992188 113.445312 544.042969 0 C 544.941406 113.445312 636.628906 205.132812 749.925781 206.03125 Z M 749.925781 206.03125 " fill-opacity="1" fill-rule="nonzero"/><path fill="#ff4ec0" d="M 412.140625 543.96875 C 298.695312 544.867188 207.007812 636.554688 206.105469 750 C 205.207031 636.554688 113.519531 544.867188 0.0742188 543.96875 C 113.519531 543.066406 205.207031 451.230469 206.105469 337.933594 C 207.007812 451.230469 298.695312 542.917969 412.140625 543.96875 Z M 412.140625 543.96875 " fill-opacity="1" fill-rule="nonzero"/></svg>