<svg xmlns="http://www.w3.org/2000/svg" xmlns:xlink="http://www.w3.org/1999/xlink" width="392" zoomAndPan="magnify" viewBox="0 0 294 749.999995" height="1000" preserveAspectRatio="xMidYMid meet" version="1.0"><defs><clipPath id="316e123fd0"><path d="M 181 562 L 294 562 L 294 749.996094 L 181 749.996094 Z M 181 562 " clip-rule="nonzero"/></clipPath><clipPath id="f1fc29925c"><path d="M 180 561 L 294 561 L 294 749.996094 L 180 749.996094 Z M 180 561 " clip-rule="nonzero"/></clipPath><clipPath id="a361941c72"><path d="M 19 562 L 132 562 L 132 749.996094 L 19 749.996094 Z M 19 562 " clip-rule="nonzero"/></clipPath><clipPath id="eccfd5619c"><path d="M 18 561 L 133 561 L 133 749.996094 L 18 749.996094 Z M 18 561 " clip-rule="nonzero"/></clipPath><clipPath id="28d078f55a"><path d="M 0.00390625 0 L 113 0 L 113 188 L 0.00390625 188 Z M 0.00390625 0 " clip-rule="nonzero"/></clipPath><clipPath id="a5fa9228ff"><path d="M 0.00390625 0 L 114 0 L 114 189 L 0.00390625 189 Z M 0.00390625 0 " clip-rule="nonzero"/></clipPath></defs><g clip-path="url(#316e123fd0)"><path fill="#ffffff" d="M 215.183594 749.464844 L 181.226562 562.335938 L 259.433594 562.335938 L 293.390625 749.464844 Z M 215.183594 749.464844 " fill-opacity="1" fill-rule="nonzero"/></g><g clip-path="url(#f1fc29925c)"><path fill="#ffffff" d="M 293.921875 749.464844 C 293.921875 749.570312 293.921875 749.679688 293.8125 749.785156 C 293.707031 749.890625 293.601562 749.996094 293.390625 749.996094 L 215.183594 749.996094 C 214.96875 749.996094 214.757812 749.785156 214.652344 749.570312 L 180.695312 562.441406 C 180.695312 562.335938 180.695312 562.125 180.800781 562.019531 C 180.90625 561.914062 181.015625 561.808594 181.226562 561.808594 L 259.433594 561.808594 C 259.644531 561.808594 259.855469 562.019531 259.964844 562.230469 L 293.921875 749.464844 C 293.921875 749.359375 293.921875 749.464844 293.921875 749.464844 Z M 215.605469 748.9375 L 292.753906 748.9375 L 259.007812 562.867188 L 181.863281 562.867188 Z M 215.605469 748.9375 " fill-opacity="1" fill-rule="nonzero"/></g><g clip-path="url(#a361941c72)"><path fill="#ffffff" d="M 53.464844 749.464844 L 19.507812 562.335938 L 97.714844 562.335938 L 131.777344 749.464844 Z M 53.464844 749.464844 " fill-opacity="1" fill-rule="nonzero"/></g><g clip-path="url(#eccfd5619c)"><path fill="#ffffff" d="M 132.308594 749.464844 C 132.308594 749.570312 132.308594 749.679688 132.199219 749.785156 C 132.09375 749.890625 131.988281 749.996094 131.777344 749.996094 L 53.464844 749.996094 C 53.25 749.996094 53.039062 749.785156 52.933594 749.570312 L 18.976562 562.441406 C 18.976562 562.335938 18.976562 562.125 19.082031 562.019531 C 19.1875 561.914062 19.292969 561.808594 19.507812 561.808594 L 97.714844 561.808594 C 97.925781 561.808594 98.136719 562.019531 98.242188 562.230469 L 132.308594 749.464844 C 132.308594 749.359375 132.308594 749.464844 132.308594 749.464844 Z M 53.992188 748.9375 L 131.140625 748.9375 L 97.394531 562.867188 L 20.144531 562.867188 Z M 53.992188 748.9375 " fill-opacity="1" fill-rule="nonzero"/></g><path fill="#ffffff" d="M 100.472656 561.066406 L 66.515625 373.828125 L 144.722656 373.828125 L 178.679688 561.066406 Z M 100.472656 561.066406 " fill-opacity="1" fill-rule="nonzero"/><path fill="#ffffff" d="M 179.210938 561.066406 C 179.210938 561.171875 179.210938 561.277344 179.105469 561.382812 C 178.996094 561.488281 178.890625 561.59375 178.679688 561.59375 L 100.472656 561.59375 C 100.261719 561.59375 100.046875 561.382812 99.941406 561.171875 L 65.984375 374.042969 C 65.984375 373.9375 65.984375 373.722656 66.089844 373.617188 C 66.195312 373.511719 66.304688 373.40625 66.515625 373.40625 L 144.722656 373.40625 C 144.933594 373.40625 145.148438 373.617188 145.253906 373.828125 L 179.210938 561.066406 C 179.210938 560.957031 179.210938 560.957031 179.210938 561.066406 Z M 100.898438 560.535156 L 178.042969 560.535156 L 144.296875 374.464844 L 67.152344 374.464844 Z M 100.898438 560.535156 " fill-opacity="1" fill-rule="nonzero"/><path fill="#ffffff" d="M 146.421875 373.617188 L 112.464844 186.488281 L 190.671875 186.488281 L 224.628906 373.617188 Z M 146.421875 373.617188 " fill-opacity="1" fill-rule="nonzero"/><path fill="#ffffff" d="M 225.15625 373.617188 C 225.15625 373.722656 225.15625 373.828125 225.050781 373.9375 C 224.945312 374.042969 224.839844 374.148438 224.628906 374.148438 L 146.421875 374.148438 C 146.207031 374.148438 145.996094 373.9375 145.890625 373.722656 L 111.933594 186.59375 C 111.933594 186.488281 111.933594 186.277344 112.039062 186.171875 C 112.144531 186.066406 112.25 185.957031 112.464844 185.957031 L 190.671875 185.957031 C 190.882812 185.957031 191.09375 186.171875 191.199219 186.382812 Z M 146.84375 373.085938 L 223.992188 373.085938 L 190.246094 187.019531 L 113.101562 187.019531 Z M 146.84375 373.085938 " fill-opacity="1" fill-rule="nonzero"/><g clip-path="url(#28d078f55a)"><path fill="#ffffff" d="M 34.574219 187.761719 L 0.617188 0.632812 L 78.824219 0.632812 L 112.78125 187.761719 Z M 34.574219 187.761719 " fill-opacity="1" fill-rule="nonzero"/></g><g clip-path="url(#a5fa9228ff)"><path fill="#ffffff" d="M 113.3125 187.761719 C 113.3125 187.867188 113.3125 187.972656 113.207031 188.078125 C 113.101562 188.183594 112.992188 188.292969 112.78125 188.292969 L 34.574219 188.292969 C 34.363281 188.292969 34.152344 188.078125 34.042969 187.867188 L 0.0859375 0.632812 C 0.0859375 0.527344 0.0859375 0.3125 0.195312 0.207031 C 0.300781 0.101562 0.40625 -0.00390625 0.617188 -0.00390625 L 78.824219 -0.00390625 C 79.039062 -0.00390625 79.25 0.207031 79.355469 0.421875 L 113.3125 187.761719 C 113.3125 187.65625 113.3125 187.761719 113.3125 187.761719 Z M 35 187.230469 L 112.144531 187.230469 L 78.402344 1.164062 L 1.253906 1.164062 Z M 35 187.230469 " fill-opacity="1" fill-rule="nonzero"/></g></svg>