<svg xmlns="http://www.w3.org/2000/svg" xmlns:xlink="http://www.w3.org/1999/xlink" width="646" zoomAndPan="magnify" viewBox="0 0 484.5 370.499989" height="494" preserveAspectRatio="xMidYMid meet" version="1.0"><defs><clipPath id="ce4904fdf7"><path d="M 0.078125 0 L 483.925781 0 L 483.925781 369.632812 L 0.078125 369.632812 Z M 0.078125 0 " clip-rule="nonzero"/></clipPath></defs><g clip-path="url(#ce4904fdf7)"><path fill="#ffffff" d="M 484.398438 0.269531 C 484.398438 0.273438 484.402344 0.277344 484.402344 0.28125 C 481.929688 27.4375 478.925781 56.132812 471.921875 82.207031 C 464.089844 111.371094 451.15625 135.226562 434.515625 151.1875 C 430.703125 154.847656 426.574219 158.21875 422.585938 161.476562 C 418.152344 165.101562 413.570312 168.84375 409.410156 172.988281 C 391.226562 191.109375 380.464844 218.171875 380.625 245.382812 C 380.648438 249.140625 380.871094 252.957031 381.085938 256.65625 C 381.425781 262.460938 381.777344 268.460938 381.355469 274.355469 C 380.164062 291.238281 372.324219 307.570312 360.394531 318.039062 C 348.382812 328.582031 333.152344 333.042969 318.421875 337.351562 C 316.03125 338.054688 313.558594 338.777344 311.148438 339.515625 C 295.679688 344.246094 276.648438 351.878906 266.734375 369.097656 C 266.679688 369.1875 266.582031 369.238281 266.484375 369.238281 C 266.4375 369.238281 266.390625 369.226562 266.34375 369.203125 C 266.207031 369.121094 266.164062 368.949219 266.238281 368.8125 C 276.25 351.425781 295.410156 343.730469 310.984375 338.96875 C 313.394531 338.234375 315.867188 337.511719 318.257812 336.808594 C 332.933594 332.511719 348.101562 328.070312 360.019531 317.613281 C 371.839844 307.238281 379.605469 291.054688 380.792969 274.316406 C 381.203125 268.457031 380.855469 262.472656 380.519531 256.6875 C 380.304688 252.984375 380.082031 249.15625 380.058594 245.386719 C 379.894531 218.023438 390.71875 190.808594 409.011719 172.582031 C 413.1875 168.417969 417.785156 164.667969 422.226562 161.039062 C 426.207031 157.785156 430.324219 154.421875 434.121094 150.777344 C 450.6875 134.886719 463.566406 111.121094 471.371094 82.058594 C 477.480469 59.328125 480.539062 34.59375 482.863281 10.621094 C 479.457031 32.523438 474.386719 58.496094 465.640625 81.808594 C 461.175781 93.695312 455.894531 104.3125 449.933594 113.359375 C 441.960938 125.566406 432.429688 135.730469 420.800781 144.441406 C 417.558594 146.882812 414.121094 149.222656 410.800781 151.476562 L 409.179688 152.578125 C 404.113281 156.035156 398.75 159.777344 393.769531 164.179688 C 378.5 177.679688 367.617188 196.910156 363.125 218.332031 C 361.902344 224.175781 361.144531 230.292969 360.859375 236.515625 C 360.695312 240.039062 360.679688 243.625 360.664062 247.085938 C 360.632812 253.304688 360.597656 259.738281 359.722656 265.96875 C 359.339844 268.648438 358.789062 271.316406 358.085938 273.898438 C 354.183594 288.207031 345.996094 300.378906 335.050781 308.175781 C 327.839844 313.308594 319.507812 316.375 312.261719 318.84375 C 306.933594 320.667969 301.382812 322.328125 296.007812 323.933594 C 289.496094 325.886719 282.761719 327.902344 276.328125 330.226562 C 272.460938 331.621094 268.953125 333.058594 265.59375 334.613281 C 247.394531 342.996094 234.992188 354.605469 228.730469 369.113281 C 228.6875 369.21875 228.578125 369.285156 228.46875 369.285156 C 228.433594 369.285156 228.394531 369.277344 228.355469 369.261719 C 228.210938 369.203125 228.148438 369.03125 228.207031 368.886719 C 234.527344 354.25 247.023438 342.542969 265.355469 334.09375 C 268.726562 332.53125 272.25 331.089844 276.136719 329.6875 C 282.582031 327.359375 289.324219 325.339844 295.84375 323.390625 C 301.210938 321.785156 306.761719 320.128906 312.078125 318.308594 C 319.285156 315.851562 327.570312 312.804688 334.722656 307.710938 C 345.5625 299.996094 353.667969 287.933594 357.539062 273.75 C 358.234375 271.1875 358.777344 268.546875 359.15625 265.886719 C 360.03125 259.695312 360.0625 253.28125 360.089844 247.082031 C 360.109375 243.613281 360.128906 240.023438 360.292969 236.488281 C 360.574219 230.234375 361.34375 224.089844 362.570312 218.21875 C 367.082031 196.671875 378.03125 177.332031 393.390625 163.75 C 398.398438 159.332031 403.777344 155.578125 408.859375 152.109375 L 410.480469 151.007812 C 413.796875 148.753906 417.230469 146.421875 420.460938 143.988281 C 432.039062 135.316406 441.523438 125.199219 449.460938 113.050781 C 455.394531 104.035156 460.660156 93.457031 465.105469 81.609375 C 473.792969 58.46875 478.84375 32.683594 482.246094 10.878906 C 476.191406 39.148438 468.675781 62.300781 459.351562 81.410156 C 453.636719 93.132812 447.148438 103.210938 440.085938 111.359375 C 431.433594 121.339844 420.945312 129.707031 407.085938 137.695312 C 404.710938 139.058594 402.246094 140.414062 399.859375 141.726562 C 398.132812 142.675781 396.347656 143.660156 394.585938 144.648438 C 387.695312 148.535156 382.617188 151.839844 378.125 155.367188 C 361.671875 168.304688 349.617188 187.402344 344.175781 209.136719 C 342.753906 214.863281 341.714844 221.09375 341.09375 227.648438 C 340.785156 230.871094 340.570312 234.144531 340.363281 237.3125 C 339.929688 244.023438 339.476562 250.960938 338.082031 257.578125 C 337.503906 260.304688 336.753906 262.976562 335.859375 265.523438 C 330.867188 279.664062 321.582031 291.308594 309.707031 298.308594 C 301.753906 302.992188 292.785156 305.460938 284.105469 307.851562 L 282.75 308.226562 C 280.546875 308.835938 278.335938 309.433594 276.109375 310.039062 C 264.589844 313.179688 252.675781 316.417969 241.503906 320.9375 C 237.246094 322.652344 233.199219 324.535156 229.460938 326.53125 C 215.824219 333.765625 198.039062 347.03125 190.726562 369.136719 C 190.6875 369.253906 190.578125 369.332031 190.457031 369.332031 C 190.425781 369.332031 190.394531 369.328125 190.367188 369.316406 C 190.21875 369.265625 190.136719 369.105469 190.1875 368.960938 C 197.558594 346.671875 215.46875 333.316406 229.191406 326.027344 C 232.949219 324.023438 237.015625 322.136719 241.289062 320.410156 C 252.496094 315.882812 264.425781 312.632812 275.960938 309.492188 C 278.183594 308.886719 280.402344 308.285156 282.597656 307.675781 L 283.953125 307.304688 C 292.59375 304.925781 301.53125 302.46875 309.421875 297.816406 C 321.175781 290.890625 330.375 279.351562 335.324219 265.332031 C 336.210938 262.8125 336.949219 260.160156 337.527344 257.457031 C 338.910156 250.886719 339.359375 243.96875 339.796875 237.273438 C 340.003906 234.101562 340.214844 230.824219 340.527344 227.59375 C 341.152344 221.011719 342.195312 214.753906 343.628906 209 C 349.097656 187.140625 361.222656 167.9375 377.773438 154.921875 C 382.289062 151.375 387.386719 148.054688 394.308594 144.15625 C 396.070312 143.160156 397.855469 142.175781 399.585938 141.230469 C 401.96875 139.921875 404.433594 138.5625 406.800781 137.203125 C 420.609375 129.25 431.046875 120.921875 439.65625 110.984375 C 446.6875 102.875 453.144531 92.839844 458.839844 81.160156 C 468.066406 62.253906 475.527344 39.363281 481.542969 11.460938 C 474.15625 38.636719 464.601562 61.992188 453.0625 81.007812 C 445.988281 92.675781 438.308594 102.210938 430.234375 109.355469 C 419.644531 118.730469 407.832031 124.761719 393.363281 130.941406 C 392.246094 131.417969 391.121094 131.894531 389.988281 132.371094 C 386.71875 133.753906 383.335938 135.183594 379.988281 136.71875 C 373.226562 139.828125 367.5 143.046875 362.484375 146.554688 C 345.101562 158.738281 331.523438 178.191406 325.234375 199.9375 C 323.601562 205.597656 322.328125 211.761719 321.324219 218.78125 C 320.910156 221.632812 320.558594 224.53125 320.21875 227.332031 C 319.335938 234.609375 318.417969 242.132812 316.445312 249.183594 C 315.660156 251.949219 314.714844 254.625 313.628906 257.140625 C 307.648438 270.960938 297.253906 282.078125 284.371094 288.4375 C 275.964844 292.585938 266.707031 294.625 257.753906 296.59375 C 256.253906 296.929688 254.746094 297.257812 253.242188 297.601562 C 237.945312 301.085938 221.75 305.046875 206.671875 311.648438 C 201.960938 313.707031 197.46875 316 193.324219 318.449219 C 172.363281 330.785156 157.9375 348.792969 152.71875 369.164062 C 152.683594 369.292969 152.566406 369.378906 152.441406 369.378906 C 152.417969 369.378906 152.390625 369.375 152.371094 369.367188 C 152.21875 369.332031 152.128906 369.175781 152.164062 369.023438 C 157.425781 348.503906 171.9375 330.375 193.035156 317.960938 C 197.203125 315.496094 201.710938 313.195312 206.445312 311.125 C 221.566406 304.503906 237.792969 300.539062 253.117188 297.046875 C 254.621094 296.707031 256.128906 296.371094 257.632812 296.039062 C 266.550781 294.078125 275.773438 292.042969 284.121094 287.925781 C 296.882812 281.628906 307.175781 270.613281 313.105469 256.914062 C 314.183594 254.421875 315.125 251.769531 315.894531 249.03125 C 317.859375 242.019531 318.769531 234.519531 319.65625 227.265625 C 319.996094 224.457031 320.351562 221.558594 320.761719 218.699219 C 321.765625 211.652344 323.050781 205.464844 324.6875 199.777344 C 331.015625 177.914062 344.667969 158.34375 362.15625 146.089844 C 367.203125 142.5625 372.957031 139.328125 379.753906 136.199219 C 383.105469 134.664062 386.492188 133.230469 389.769531 131.847656 C 390.898438 131.367188 392.027344 130.894531 393.140625 130.414062 C 407.5625 124.261719 419.320312 118.253906 429.859375 108.929688 C 437.886719 101.824219 445.53125 92.332031 452.578125 80.714844 C 463.984375 61.914062 473.453125 38.855469 480.792969 12.042969 C 472.085938 38.609375 460.664062 61.632812 446.773438 80.605469 C 438.285156 92.203125 429.40625 101.199219 420.375 107.347656 C 408.144531 115.679688 394.816406 119.65625 380.707031 123.863281 L 379.648438 124.179688 C 374.804688 125.625 370.074219 127.066406 365.394531 128.78125 C 358.613281 131.277344 352.367188 134.292969 346.839844 137.746094 C 328.289062 149.34375 313.511719 168.652344 306.289062 190.734375 C 304.476562 196.296875 302.972656 202.390625 301.554688 209.910156 C 301.097656 212.324219 300.664062 214.78125 300.253906 217.152344 C 298.863281 225.066406 297.429688 233.257812 294.804688 240.792969 C 293.816406 243.59375 292.675781 246.273438 291.398438 248.757812 C 284.515625 262.160156 273.023438 272.742188 259.035156 278.5625 C 249.976562 282.328125 240.199219 284.046875 230.738281 285.710938 C 228.445312 286.117188 226.070312 286.535156 223.738281 286.972656 C 208.925781 289.785156 189.640625 294.078125 171.84375 302.359375 C 166.671875 304.765625 161.742188 307.460938 157.1875 310.371094 C 134.792969 324.628906 119.308594 346.070312 114.703125 369.195312 C 114.675781 369.332031 114.558594 369.425781 114.425781 369.425781 C 114.40625 369.425781 114.390625 369.421875 114.371094 369.417969 C 114.214844 369.386719 114.117188 369.238281 114.148438 369.085938 C 118.78125 345.804688 134.359375 324.234375 156.878906 309.894531 C 161.453125 306.964844 166.410156 304.257812 171.605469 301.84375 C 189.460938 293.535156 208.789062 289.234375 223.628906 286.417969 C 225.96875 285.976562 228.34375 285.554688 230.640625 285.152344 C 240.070312 283.496094 249.816406 281.777344 258.816406 278.035156 C 272.679688 272.269531 284.074219 261.78125 290.894531 248.5 C 292.15625 246.039062 293.292969 243.382812 294.269531 240.605469 C 296.878906 233.109375 298.246094 225.3125 299.691406 217.054688 C 300.105469 214.679688 300.535156 212.222656 300.996094 209.808594 C 302.417969 202.261719 303.925781 196.144531 305.746094 190.558594 C 313.011719 168.355469 327.878906 148.929688 346.539062 137.261719 C 352.097656 133.792969 358.378906 130.757812 365.203125 128.25 C 369.890625 126.527344 374.636719 125.085938 379.488281 123.636719 L 380.546875 123.324219 C 394.613281 119.125 407.898438 115.160156 420.058594 106.875 C 429.03125 100.765625 437.863281 91.8125 446.316406 80.269531 C 460.09375 61.449219 471.4375 38.625 480.113281 12.296875 C 470.097656 38.359375 456.535156 61.652344 440.488281 80.199219 C 430.398438 91.859375 420.601562 100.082031 410.523438 105.332031 C 398.421875 111.644531 385.71875 113.894531 372.273438 116.277344 C 370.171875 116.652344 368.054688 117.027344 365.929688 117.421875 C 361.15625 118.320312 356.015625 119.359375 350.804688 120.847656 C 343.859375 122.832031 337.265625 125.554688 331.195312 128.933594 C 311.484375 139.933594 295.5 159.105469 287.339844 181.53125 C 285.375 186.957031 283.660156 192.972656 281.785156 201.042969 C 281.339844 202.957031 280.90625 204.875 280.476562 206.785156 C 278.535156 215.410156 276.527344 224.332031 273.164062 232.398438 C 271.972656 235.234375 270.632812 237.917969 269.171875 240.375 C 261.480469 253.304688 248.886719 263.359375 233.699219 268.6875 C 223.914062 272.113281 213.515625 273.578125 203.464844 274.996094 C 200.4375 275.417969 197.308594 275.863281 194.234375 276.351562 C 170.988281 280.050781 152.808594 285.367188 137.011719 293.070312 C 131.375 295.820312 126.003906 298.925781 121.042969 302.292969 C 96.882812 318.675781 80.714844 343.074219 76.691406 369.226562 C 76.667969 369.367188 76.546875 369.46875 76.414062 369.46875 C 76.398438 369.46875 76.382812 369.46875 76.367188 369.464844 C 76.210938 369.445312 76.105469 369.300781 76.128906 369.140625 C 80.175781 342.832031 96.433594 318.292969 120.726562 301.824219 C 125.707031 298.4375 131.101562 295.320312 136.765625 292.5625 C 152.609375 284.828125 170.839844 279.503906 194.144531 275.785156 C 197.222656 275.296875 200.355469 274.855469 203.382812 274.433594 C 213.410156 273.023438 223.777344 271.5625 233.507812 268.148438 C 248.574219 262.863281 261.0625 252.902344 268.683594 240.089844 C 270.128906 237.648438 271.460938 234.992188 272.636719 232.179688 C 275.980469 224.160156 277.894531 215.660156 279.921875 206.660156 C 280.351562 204.746094 280.78125 202.828125 281.230469 200.914062 C 283.113281 192.820312 284.835938 186.78125 286.804688 181.339844 C 295.011719 158.78125 311.089844 139.5 330.917969 128.4375 C 337.023438 125.035156 343.660156 122.296875 350.648438 120.300781 C 355.878906 118.808594 361.039062 117.765625 365.824219 116.863281 C 367.953125 116.46875 370.070312 116.09375 372.175781 115.71875 C 385.574219 113.34375 398.234375 111.097656 410.257812 104.832031 C 420.269531 99.609375 430.015625 91.433594 440.054688 79.828125 C 455.871094 61.546875 469.273438 38.636719 479.226562 13.007812 C 467.945312 38.601562 452.539062 61.5 434.195312 79.789062 C 422.515625 91.367188 411.546875 99.0625 400.667969 103.316406 C 388.375 108.160156 375.78125 109.003906 362.449219 109.898438 C 359.097656 110.125 355.632812 110.355469 352.214844 110.65625 C 345.765625 111.230469 340.832031 111.925781 336.214844 112.90625 C 329.082031 114.421875 322.128906 116.851562 315.554688 120.117188 C 294.679688 130.507812 277.492188 149.539062 268.394531 172.328125 C 265.777344 178.898438 263.78125 185.746094 262.015625 192.171875 C 261.640625 193.527344 261.273438 194.886719 260.902344 196.242188 C 258.347656 205.648438 255.703125 215.378906 251.519531 224 C 250.128906 226.867188 248.582031 229.554688 246.941406 231.992188 C 236.167969 247.921875 220.015625 255.367188 208.367188 258.808594 C 197.828125 261.917969 186.777344 263.160156 176.09375 264.363281 C 172.367188 264.785156 168.511719 265.214844 164.734375 265.722656 C 140.089844 269.03125 119.628906 274.9375 102.183594 283.785156 C 96.078125 286.878906 90.265625 290.386719 84.902344 294.21875 C 59.320312 312.46875 42.039062 340.523438 38.679688 369.265625 C 38.660156 369.410156 38.539062 369.515625 38.394531 369.515625 C 38.382812 369.515625 38.375 369.515625 38.363281 369.515625 C 38.207031 369.496094 38.09375 369.355469 38.113281 369.203125 C 39.871094 354.179688 45.132812 339.703125 53.753906 326.167969 C 61.71875 313.664062 72.375 302.457031 84.574219 293.757812 C 89.953125 289.910156 95.792969 286.382812 101.925781 283.28125 C 119.433594 274.402344 139.953125 268.476562 164.660156 265.160156 C 168.441406 264.652344 172.296875 264.21875 176.027344 263.796875 C 186.691406 262.597656 197.714844 261.359375 208.203125 258.261719 C 219.765625 254.847656 235.792969 247.464844 246.46875 231.675781 C 248.097656 229.261719 249.628906 226.59375 251.007812 223.753906 C 255.171875 215.175781 257.804688 205.476562 260.355469 196.09375 C 260.722656 194.738281 261.09375 193.378906 261.46875 192.019531 C 263.238281 185.582031 265.238281 178.714844 267.867188 172.121094 C 277.015625 149.199219 294.300781 130.058594 315.304688 119.609375 C 321.917969 116.320312 328.914062 113.878906 336.097656 112.351562 C 340.738281 111.367188 345.695312 110.667969 352.164062 110.089844 C 355.589844 109.789062 359.058594 109.558594 362.410156 109.332031 C 375.695312 108.441406 388.246094 107.601562 400.460938 102.785156 C 411.265625 98.5625 422.167969 90.90625 433.792969 79.386719 C 451.867188 61.363281 467.085938 38.855469 478.304688 13.6875 C 465.699219 39.078125 448.464844 61.589844 427.90625 79.382812 C 414.789062 90.730469 402.65625 97.898438 390.820312 101.292969 C 378.003906 104.972656 364.523438 104.550781 351.484375 104.148438 C 341.644531 103.84375 331.46875 103.53125 321.621094 104.96875 C 291.15625 109.421875 262.824219 132.25 249.445312 163.128906 C 246.335938 170.3125 243.894531 178.058594 241.535156 185.550781 C 237.335938 198.894531 232.988281 212.6875 224.707031 223.609375 C 215.542969 235.699219 201.128906 244.453125 183.03125 248.925781 C 171.761719 251.714844 160.054688 252.765625 148.730469 253.777344 C 144.300781 254.175781 139.71875 254.585938 135.234375 255.09375 C 99.695312 259.125 71.414062 269.28125 48.761719 286.140625 C 21.382812 306.515625 3.402344 337.605469 0.664062 369.304688 C 0.652344 369.453125 0.527344 369.566406 0.378906 369.566406 C 0.371094 369.566406 0.363281 369.5625 0.359375 369.5625 C 0.199219 369.550781 0.0859375 369.410156 0.0976562 369.253906 C 2.851562 337.398438 20.914062 306.15625 48.421875 285.683594 C 71.15625 268.761719 99.53125 258.574219 135.164062 254.53125 C 139.664062 254.019531 144.246094 253.613281 148.679688 253.214844 C 159.980469 252.203125 171.664062 251.152344 182.894531 248.375 C 200.863281 243.9375 215.167969 235.253906 224.253906 223.265625 C 232.472656 212.425781 236.804688 198.671875 240.992188 185.378906 C 243.359375 177.875 245.804688 170.113281 248.929688 162.902344 C 255.570312 147.574219 265.875 133.992188 278.734375 123.628906 C 291.601562 113.265625 306.402344 106.621094 321.539062 104.40625 C 331.433594 102.960938 341.640625 103.277344 351.503906 103.578125 C 364.496094 103.984375 377.933594 104.398438 390.660156 100.746094 C 402.417969 97.371094 414.480469 90.246094 427.53125 78.953125 C 451.5625 58.164062 471.035156 30.914062 483.859375 0.148438 C 483.859375 0.140625 483.863281 0.140625 483.867188 0.132812 C 483.871094 0.128906 483.871094 0.121094 483.875 0.117188 C 483.878906 0.109375 483.882812 0.105469 483.886719 0.101562 C 483.886719 0.101562 483.886719 0.0976562 483.890625 0.0976562 C 483.894531 0.09375 483.894531 0.0898438 483.898438 0.0859375 C 483.898438 0.0820312 483.898438 0.078125 483.902344 0.0742188 C 483.90625 0.0703125 483.90625 0.0703125 483.910156 0.0664062 C 483.914062 0.0625 483.914062 0.0585938 483.917969 0.0585938 C 483.921875 0.0546875 483.925781 0.0507812 483.929688 0.046875 C 483.933594 0.0429688 483.9375 0.0390625 483.941406 0.0351562 C 483.949219 0.03125 483.953125 0.0273438 483.960938 0.0195312 C 483.964844 0.0195312 483.964844 0.0195312 483.964844 0.0195312 C 483.96875 0.015625 483.972656 0.015625 483.976562 0.0117188 C 483.980469 0.0078125 483.984375 0.0078125 483.988281 0.00390625 C 483.992188 0.00390625 483.996094 0 484 0 C 484.003906 -0.00390625 484.007812 -0.00390625 484.007812 -0.00390625 C 484.015625 -0.0078125 484.019531 -0.0078125 484.023438 -0.0117188 C 484.027344 -0.0117188 484.03125 -0.0117188 484.035156 -0.0117188 C 484.042969 -0.015625 484.050781 -0.015625 484.058594 -0.0195312 C 484.0625 -0.0195312 484.066406 -0.0195312 484.066406 -0.0195312 C 484.070312 -0.0195312 484.074219 -0.0195312 484.078125 -0.0234375 C 484.082031 -0.0234375 484.085938 -0.0234375 484.09375 -0.0234375 C 484.097656 -0.0234375 484.101562 -0.0234375 484.105469 -0.0234375 C 484.109375 -0.0234375 484.113281 -0.0273438 484.113281 -0.0273438 C 484.121094 -0.0273438 484.128906 -0.0234375 484.132812 -0.0234375 C 484.140625 -0.0234375 484.140625 -0.0273438 484.144531 -0.0234375 C 484.148438 -0.0234375 484.148438 -0.0234375 484.152344 -0.0234375 C 484.152344 -0.0234375 484.15625 -0.0234375 484.160156 -0.0234375 C 484.164062 -0.0234375 484.164062 -0.0234375 484.167969 -0.0195312 C 484.167969 -0.0195312 484.171875 -0.0234375 484.171875 -0.0195312 C 484.175781 -0.0195312 484.175781 -0.0195312 484.179688 -0.0195312 C 484.183594 -0.0195312 484.183594 -0.0195312 484.1875 -0.0195312 C 484.1875 -0.0195312 484.191406 -0.015625 484.191406 -0.015625 C 484.195312 -0.015625 484.195312 -0.015625 484.199219 -0.015625 C 484.199219 -0.015625 484.203125 -0.0117188 484.203125 -0.0117188 C 484.207031 -0.0117188 484.207031 -0.0117188 484.210938 -0.0117188 C 484.210938 -0.0117188 484.214844 -0.0117188 484.214844 -0.0117188 C 484.21875 -0.0117188 484.21875 -0.0117188 484.21875 -0.0117188 C 484.222656 -0.0117188 484.222656 -0.0078125 484.226562 -0.0078125 C 484.226562 -0.0078125 484.226562 -0.0078125 484.230469 -0.0078125 C 484.234375 -0.00390625 484.238281 0 484.242188 0 C 484.25 0.00390625 484.253906 0.00390625 484.261719 0.0078125 C 484.261719 0.0117188 484.265625 0.015625 484.269531 0.015625 C 484.273438 0.0195312 484.277344 0.0195312 484.28125 0.0234375 C 484.285156 0.0273438 484.289062 0.03125 484.292969 0.03125 C 484.296875 0.0351562 484.300781 0.0351562 484.300781 0.0390625 C 484.304688 0.0429688 484.308594 0.0429688 484.3125 0.046875 C 484.3125 0.0507812 484.316406 0.0507812 484.316406 0.0546875 C 484.324219 0.0585938 484.328125 0.0625 484.332031 0.0703125 C 484.335938 0.0742188 484.339844 0.078125 484.34375 0.0820312 C 484.347656 0.0859375 484.347656 0.0898438 484.351562 0.09375 C 484.355469 0.0976562 484.355469 0.101562 484.359375 0.105469 C 484.363281 0.105469 484.363281 0.109375 484.367188 0.113281 C 484.367188 0.117188 484.371094 0.121094 484.371094 0.125 C 484.375 0.125 484.375 0.128906 484.378906 0.132812 C 484.378906 0.136719 484.378906 0.140625 484.382812 0.140625 C 484.382812 0.148438 484.382812 0.152344 484.382812 0.160156 C 484.386719 0.164062 484.386719 0.171875 484.390625 0.175781 C 484.390625 0.179688 484.394531 0.1875 484.394531 0.191406 C 484.394531 0.195312 484.394531 0.199219 484.398438 0.203125 C 484.398438 0.210938 484.398438 0.214844 484.398438 0.21875 C 484.398438 0.222656 484.398438 0.222656 484.398438 0.226562 C 484.402344 0.230469 484.402344 0.234375 484.402344 0.238281 C 484.402344 0.242188 484.402344 0.246094 484.402344 0.25 C 484.402344 0.253906 484.398438 0.261719 484.398438 0.269531 " fill-opacity="1" fill-rule="nonzero"/></g></svg>