<svg xmlns="http://www.w3.org/2000/svg" xmlns:xlink="http://www.w3.org/1999/xlink" width="1000" zoomAndPan="magnify" viewBox="0 0 750 749.999995" height="1000" preserveAspectRatio="xMidYMid meet" version="1.0"><path fill="#ffffff" d="M 749.449219 353.082031 C 749.449219 360.632812 747.253906 368.035156 743.085938 375.179688 C 747.253906 382.324219 749.449219 389.726562 749.449219 397.273438 C 749.449219 430.679688 707.023438 460.613281 638.480469 481.957031 C 570.894531 503.007812 477.59375 516.023438 374.605469 516.023438 C 271.589844 516.023438 178.292969 503.007812 110.730469 481.957031 C 42.160156 460.613281 -0.265625 430.679688 -0.265625 397.273438 C -0.265625 389.726562 1.933594 382.324219 6.097656 375.179688 C 1.933594 368.035156 -0.265625 360.632812 -0.265625 353.082031 C -0.265625 319.679688 42.160156 289.746094 110.730469 268.402344 C 178.292969 247.347656 271.589844 234.335938 374.605469 234.335938 C 477.59375 234.335938 570.894531 247.347656 638.480469 268.402344 C 707.023438 289.746094 749.449219 319.679688 749.449219 353.082031 Z M 739.558594 380.558594 C 723.25 402.769531 687.558594 422.4375 638.480469 437.734375 C 570.894531 458.789062 477.59375 471.804688 374.605469 471.804688 C 271.589844 471.804688 178.292969 458.789062 110.730469 437.734375 C 61.625 422.4375 25.9375 402.769531 9.625 380.558594 C 6.90625 386.023438 5.519531 391.605469 5.519531 397.273438 C 5.519531 427.84375 46.382812 455.898438 112.410156 476.460938 C 179.476562 497.339844 272.167969 510.269531 374.605469 510.269531 C 477.015625 510.269531 569.734375 497.339844 636.773438 476.460938 C 702.828125 455.898438 743.695312 427.84375 743.695312 397.273438 C 743.695312 391.605469 742.277344 386.023438 739.558594 380.558594 Z M 9.625 369.800781 C 25.9375 347.558594 61.625 327.894531 110.730469 312.59375 C 178.292969 291.570312 271.589844 278.554688 374.605469 278.554688 C 477.59375 278.554688 570.894531 291.570312 638.480469 312.59375 C 687.558594 327.894531 723.25 347.558594 739.558594 369.800781 C 742.277344 364.332031 743.695312 358.753906 743.695312 353.082031 C 743.695312 322.484375 702.828125 294.460938 636.773438 273.898438 C 569.734375 253.015625 477.015625 240.089844 374.605469 240.089844 C 272.167969 240.089844 179.476562 253.015625 112.410156 273.898438 C 46.382812 294.460938 5.519531 322.484375 5.519531 353.082031 C 5.519531 358.753906 6.90625 364.332031 9.625 369.800781 Z M 736.4375 375.179688 C 721.976562 353.316406 686.519531 333.589844 636.773438 318.117188 C 569.707031 297.238281 477.015625 284.308594 374.605469 284.308594 C 272.167969 284.308594 179.476562 297.238281 112.4375 318.117188 C 62.664062 333.589844 27.207031 353.316406 12.75 375.179688 C 27.207031 397.042969 62.664062 416.738281 112.4375 432.242188 C 179.476562 453.121094 272.167969 466.046875 374.605469 466.046875 C 477.015625 466.046875 569.707031 453.121094 636.773438 432.242188 C 686.519531 416.738281 721.976562 397.042969 736.4375 375.179688 " fill-opacity="1" fill-rule="nonzero"/><path fill="#ffffff" d="M 330.386719 0.304688 C 363.789062 0.304688 393.695312 42.734375 415.066406 111.304688 C 436.09375 178.863281 449.136719 272.164062 449.136719 375.179688 C 449.136719 478.167969 436.09375 571.464844 415.066406 639.054688 C 393.695312 707.597656 363.789062 750.023438 330.386719 750.023438 C 296.984375 750.023438 267.078125 707.597656 245.707031 639.054688 C 224.679688 571.464844 211.636719 478.167969 211.636719 375.179688 C 211.636719 272.164062 224.679688 178.863281 245.707031 111.304688 C 267.078125 42.734375 296.984375 0.304688 330.386719 0.304688 Z M 409.570312 113.011719 C 388.980469 46.957031 360.984375 6.089844 330.386719 6.089844 C 299.816406 6.089844 271.792969 46.957031 251.199219 113.011719 C 230.320312 180.050781 217.421875 272.742188 217.421875 375.179688 C 217.421875 477.589844 230.320312 570.28125 251.199219 637.347656 C 271.792969 703.402344 299.816406 744.269531 330.386719 744.269531 C 360.984375 744.269531 388.980469 703.402344 409.570312 637.347656 C 430.453125 570.28125 443.351562 477.589844 443.351562 375.179688 C 443.351562 272.742188 430.453125 180.050781 409.570312 113.011719 " fill-opacity="1" fill-rule="nonzero"/><path fill="#ffffff" d="M 374.605469 0.304688 C 408.011719 0.304688 437.914062 42.734375 459.257812 111.304688 C 480.3125 178.863281 493.328125 272.164062 493.328125 375.179688 C 493.328125 478.167969 480.3125 571.464844 459.257812 639.054688 C 437.914062 707.597656 408.011719 750.023438 374.605469 750.023438 C 341.175781 750.023438 311.269531 707.597656 289.925781 639.054688 C 268.871094 571.464844 255.859375 478.167969 255.859375 375.179688 C 255.859375 272.164062 268.871094 178.863281 289.925781 111.304688 C 311.269531 42.734375 341.175781 0.304688 374.605469 0.304688 Z M 453.761719 113.011719 C 433.199219 46.957031 405.175781 6.089844 374.605469 6.089844 C 344.007812 6.089844 315.984375 46.957031 295.421875 113.011719 C 274.539062 180.050781 261.613281 272.742188 261.613281 375.179688 C 261.613281 477.589844 274.539062 570.28125 295.421875 637.347656 C 315.984375 703.402344 344.007812 744.269531 374.605469 744.269531 C 405.175781 744.269531 433.199219 703.402344 453.761719 637.347656 C 474.644531 570.28125 487.570312 477.589844 487.570312 375.179688 C 487.570312 272.742188 474.644531 180.050781 453.761719 113.011719 " fill-opacity="1" fill-rule="nonzero"/><path fill="#ffffff" d="M 418.796875 0.304688 C 452.203125 0.304688 482.132812 42.734375 503.476562 111.304688 C 524.53125 178.863281 537.546875 272.164062 537.546875 375.179688 C 537.546875 478.167969 524.53125 571.464844 503.476562 639.054688 C 482.132812 707.597656 452.203125 750.023438 418.796875 750.023438 C 385.394531 750.023438 355.488281 707.597656 334.144531 639.054688 C 313.09375 571.464844 300.078125 478.167969 300.078125 375.179688 C 300.078125 272.164062 313.09375 178.863281 334.144531 111.304688 C 355.488281 42.734375 385.394531 0.304688 418.796875 0.304688 Z M 497.984375 113.011719 C 477.421875 46.957031 449.394531 6.089844 418.796875 6.089844 C 388.226562 6.089844 360.203125 46.957031 339.640625 113.011719 C 318.761719 180.050781 305.832031 272.742188 305.832031 375.179688 C 305.832031 477.589844 318.761719 570.28125 339.640625 637.347656 C 360.203125 703.402344 388.226562 744.269531 418.796875 744.269531 C 449.394531 744.269531 477.421875 703.402344 497.984375 637.347656 C 518.863281 570.28125 531.792969 477.589844 531.792969 375.179688 C 531.792969 272.742188 518.863281 180.050781 497.984375 113.011719 " fill-opacity="1" fill-rule="nonzero"/></svg>