<svg xmlns="http://www.w3.org/2000/svg" xmlns:xlink="http://www.w3.org/1999/xlink" width="1000" zoomAndPan="magnify" viewBox="0 0 750 749.999995" height="1000" preserveAspectRatio="xMidYMid meet" version="1.0"><path fill="#ffffff" d="M 663.046875 201.476562 L 663.046875 115.679688 L 749.808594 115.679688 L 749.808594 86.761719 L 663.046875 86.761719 L 663.046875 0 L 634.125 0 L 634.125 86.761719 L 547.363281 86.761719 L 547.363281 98.328125 L 201.476562 98.328125 L 201.476562 86.761719 L 115.679688 86.761719 L 115.679688 0 L 86.761719 0 L 86.761719 86.761719 L 0 86.761719 L 0 115.679688 L 86.761719 115.679688 L 86.761719 202.441406 L 98.328125 202.441406 L 98.328125 547.847656 L 86.761719 547.847656 L 86.761719 634.609375 L 0 634.609375 L 0 663.527344 L 86.761719 663.527344 L 86.761719 750.289062 L 115.679688 750.289062 L 115.679688 663.527344 L 202.441406 663.527344 L 202.441406 650.996094 L 547.847656 650.996094 L 547.847656 663.046875 L 634.609375 663.046875 L 634.609375 749.808594 L 663.527344 749.808594 L 663.527344 663.046875 L 750.289062 663.046875 L 750.289062 634.125 L 663.527344 634.125 L 663.527344 547.363281 L 650.996094 547.363281 L 650.996094 201.476562 Z M 645.886719 547.847656 L 634.125 547.847656 L 634.125 634.609375 L 547.363281 634.609375 L 547.363281 645.886719 L 201.476562 645.886719 L 201.476562 634.125 L 115.679688 634.125 L 115.679688 547.363281 L 103.148438 547.363281 L 103.148438 201.476562 L 115.679688 201.476562 L 115.679688 115.679688 L 202.441406 115.679688 L 202.441406 103.148438 L 547.847656 103.148438 L 547.847656 115.679688 L 634.609375 115.679688 L 634.609375 202.441406 L 645.886719 202.441406 Z M 645.886719 547.847656 " fill-opacity="1" fill-rule="nonzero"/></svg>