<svg xmlns="http://www.w3.org/2000/svg" xmlns:xlink="http://www.w3.org/1999/xlink" width="646" zoomAndPan="magnify" viewBox="0 0 484.5 262.499992" height="350" preserveAspectRatio="xMidYMid meet" version="1.0"><defs><clipPath id="7785a6dcf7"><path d="M 0.210938 0 L 483.789062 0 L 483.789062 262 L 0.210938 262 Z M 0.210938 0 " clip-rule="nonzero"/></clipPath></defs><g clip-path="url(#7785a6dcf7)"><path fill="#ffffff" d="M 0.460938 80.871094 L 322.789062 69.542969 L 326.886719 40.4375 L 332.582031 0 L 338.28125 40.4375 L 342.648438 71.492188 L 430.636719 80.871094 L 342.648438 90.253906 L 338.28125 121.308594 L 332.582031 161.746094 L 326.886719 121.308594 L 322.789062 92.203125 Z M 39.785156 166.558594 L 107.285156 164.175781 L 108.132812 158.085938 L 109.335938 149.613281 L 110.519531 158.085938 L 111.429688 164.589844 L 129.867188 166.558594 L 111.429688 168.523438 L 110.519531 175.011719 L 109.335938 183.484375 L 108.132812 175.011719 L 107.285156 168.921875 Z M 418.203125 153.5 L 422.027344 180.734375 L 424.972656 201.65625 L 484.25 207.984375 L 424.972656 214.296875 L 422.027344 235.21875 L 418.203125 262.453125 L 414.359375 235.21875 L 411.59375 215.609375 L 194.457031 207.984375 L 411.59375 200.34375 L 414.359375 180.734375 L 418.203125 153.5 " fill-opacity="1" fill-rule="evenodd"/></g></svg>